<svg width="200" height="200" viewBox="0 0 200 200" fill="none" xmlns="http://www.w3.org/2000/svg">
<rect width="200" height="200" fill="white"/>
<path d="M160.776 75V30.2H141.32C138.504 30.2 136.051 30.6907 133.96 31.672C131.869 32.6533 130.248 34.04 129.096 35.832C127.944 37.624 127.368 39.736 127.368 42.168V42.936C127.368 45.624 128.008 47.8 129.288 49.464C130.568 51.128 132.147 52.344 134.024 53.112V54.264C132.317 54.3493 130.995 54.9467 130.056 56.056C129.117 57.1227 128.648 58.552 128.648 60.344V75H137.096V61.56C137.096 60.536 137.373 59.704 137.928 59.064C138.44 58.424 139.315 58.104 140.552 58.104H152.328V75H160.776ZM152.328 50.424H142.216C140.211 50.424 138.653 49.8907 137.544 48.824C136.392 47.7147 135.816 46.264 135.816 44.472V43.832C135.816 42.04 136.371 40.6107 137.48 39.544C138.589 38.4347 140.168 37.88 142.216 37.88H152.328V50.424Z" fill="#111820"/>
<path d="M115.776 75V30.2H96.32C93.504 30.2 91.0507 30.6907 88.96 31.672C86.8693 32.6533 85.248 34.04 84.096 35.832C82.944 37.624 82.368 39.736 82.368 42.168V42.936C82.368 45.624 83.008 47.8 84.288 49.464C85.568 51.128 87.1467 52.344 89.024 53.112V54.264C87.3173 54.3493 85.9947 54.9467 85.056 56.056C84.1173 57.1227 83.648 58.552 83.648 60.344V75H92.096V61.56C92.096 60.536 92.3733 59.704 92.928 59.064C93.44 58.424 94.3147 58.104 95.552 58.104H107.328V75H115.776ZM107.328 50.424H97.216C95.2107 50.424 93.6533 49.8907 92.544 48.824C91.392 47.7147 90.816 46.264 90.816 44.472V43.832C90.816 42.04 91.3707 40.6107 92.48 39.544C93.5893 38.4347 95.168 37.88 97.216 37.88H107.328V50.424Z" fill="#101823"/>
<path d="M38.224 75V30.2H57.68C60.496 30.2 62.9493 30.6907 65.04 31.672C67.1307 32.6533 68.752 34.04 69.904 35.832C71.056 37.624 71.632 39.736 71.632 42.168V42.936C71.632 45.624 70.992 47.8 69.712 49.464C68.432 51.128 66.8533 52.344 64.976 53.112V54.264C66.6827 54.3493 68.0053 54.9467 68.944 56.056C69.8827 57.1227 70.352 58.552 70.352 60.344V75H61.904V61.56C61.904 60.536 61.6267 59.704 61.072 59.064C60.56 58.424 59.6853 58.104 58.448 58.104H46.672V75H38.224ZM46.672 50.424H56.784C58.7893 50.424 60.3467 49.8907 61.456 48.824C62.608 47.7147 63.184 46.264 63.184 44.472V43.832C63.184 42.04 62.6293 40.6107 61.52 39.544C60.4107 38.4347 58.832 37.88 56.784 37.88H46.672V50.424Z" fill="#F3AA4E"/>
<path d="M70.776 122V77.2H51.32C48.504 77.2 46.0507 77.6907 43.96 78.672C41.8693 79.6533 40.248 81.04 39.096 82.832C37.944 84.624 37.368 86.736 37.368 89.168V89.936C37.368 92.624 38.008 94.8 39.288 96.464C40.568 98.128 42.1467 99.344 44.024 100.112V101.264C42.3173 101.349 40.9947 101.947 40.056 103.056C39.1173 104.123 38.648 105.552 38.648 107.344V122H47.096V108.56C47.096 107.536 47.3733 106.704 47.928 106.064C48.44 105.424 49.3147 105.104 50.552 105.104H62.328V122H70.776ZM62.328 97.424H52.216C50.2107 97.424 48.6533 96.8907 47.544 95.824C46.392 94.7147 45.816 93.264 45.816 91.472V90.832C45.816 89.04 46.3707 87.6107 47.48 86.544C48.5893 85.4347 50.168 84.88 52.216 84.88H62.328V97.424Z" fill="#101823"/>
<path d="M160.776 122V77.2H141.32C138.504 77.2 136.051 77.6907 133.96 78.672C131.869 79.6533 130.248 81.04 129.096 82.832C127.944 84.624 127.368 86.736 127.368 89.168V89.936C127.368 92.624 128.008 94.8 129.288 96.464C130.568 98.128 132.147 99.344 134.024 100.112V101.264C132.317 101.349 130.995 101.947 130.056 103.056C129.117 104.123 128.648 105.552 128.648 107.344V122H137.096V108.56C137.096 107.536 137.373 106.704 137.928 106.064C138.44 105.424 139.315 105.104 140.552 105.104H152.328V122H160.776ZM152.328 97.424H142.216C140.211 97.424 138.653 96.8907 137.544 95.824C136.392 94.7147 135.816 93.264 135.816 91.472V90.832C135.816 89.04 136.371 87.6107 137.48 86.544C138.589 85.4347 140.168 84.88 142.216 84.88H152.328V97.424Z" fill="#101823"/>
<path d="M83.224 122V77.2H102.68C105.496 77.2 107.949 77.6907 110.04 78.672C112.131 79.6533 113.752 81.04 114.904 82.832C116.056 84.624 116.632 86.736 116.632 89.168V89.936C116.632 92.624 115.992 94.8 114.712 96.464C113.432 98.128 111.853 99.344 109.976 100.112V101.264C111.683 101.349 113.005 101.947 113.944 103.056C114.883 104.123 115.352 105.552 115.352 107.344V122H106.904V108.56C106.904 107.536 106.627 106.704 106.072 106.064C105.56 105.424 104.685 105.104 103.448 105.104H91.672V122H83.224ZM91.672 97.424H101.784C103.789 97.424 105.347 96.8907 106.456 95.824C107.608 94.7147 108.184 93.264 108.184 91.472V90.832C108.184 89.04 107.629 87.6107 106.52 86.544C105.411 85.4347 103.832 84.88 101.784 84.88H91.672V97.424Z" fill="#F3AA4E"/>
<path d="M160.776 169V124.2H141.32C138.504 124.2 136.051 124.691 133.96 125.672C131.869 126.653 130.248 128.04 129.096 129.832C127.944 131.624 127.368 133.736 127.368 136.168V136.936C127.368 139.624 128.008 141.8 129.288 143.464C130.568 145.128 132.147 146.344 134.024 147.112V148.264C132.317 148.349 130.995 148.947 130.056 150.056C129.117 151.123 128.648 152.552 128.648 154.344V169H137.096V155.56C137.096 154.536 137.373 153.704 137.928 153.064C138.44 152.424 139.315 152.104 140.552 152.104H152.328V169H160.776ZM152.328 144.424H142.216C140.211 144.424 138.653 143.891 137.544 142.824C136.392 141.715 135.816 140.264 135.816 138.472V137.832C135.816 136.04 136.371 134.611 137.48 133.544C138.589 132.435 140.168 131.88 142.216 131.88H152.328V144.424Z" fill="#F3AA4E"/>
<path d="M115.776 169V124.2H96.32C93.504 124.2 91.0507 124.691 88.96 125.672C86.8693 126.653 85.248 128.04 84.096 129.832C82.944 131.624 82.368 133.736 82.368 136.168V136.936C82.368 139.624 83.008 141.8 84.288 143.464C85.568 145.128 87.1467 146.344 89.024 147.112V148.264C87.3173 148.349 85.9947 148.947 85.056 150.056C84.1173 151.123 83.648 152.552 83.648 154.344V169H92.096V155.56C92.096 154.536 92.3733 153.704 92.928 153.064C93.44 152.424 94.3147 152.104 95.552 152.104H107.328V169H115.776ZM107.328 144.424H97.216C95.2107 144.424 93.6533 143.891 92.544 142.824C91.392 141.715 90.816 140.264 90.816 138.472V137.832C90.816 136.04 91.3707 134.611 92.48 133.544C93.5893 132.435 95.168 131.88 97.216 131.88H107.328V144.424Z" fill="#101823"/>
<path d="M70.776 169V124.2H51.32C48.504 124.2 46.0507 124.691 43.96 125.672C41.8693 126.653 40.248 128.04 39.096 129.832C37.944 131.624 37.368 133.736 37.368 136.168V136.936C37.368 139.624 38.008 141.8 39.288 143.464C40.568 145.128 42.1467 146.344 44.024 147.112V148.264C42.3173 148.349 40.9947 148.947 40.056 150.056C39.1173 151.123 38.648 152.552 38.648 154.344V169H47.096V155.56C47.096 154.536 47.3733 153.704 47.928 153.064C48.44 152.424 49.3147 152.104 50.552 152.104H62.328V169H70.776ZM62.328 144.424H52.216C50.2107 144.424 48.6533 143.891 47.544 142.824C46.392 141.715 45.816 140.264 45.816 138.472V137.832C45.816 136.04 46.3707 134.611 47.48 133.544C48.5893 132.435 50.168 131.88 52.216 131.88H62.328V144.424Z" fill="#101823"/>
</svg>
